<?xml version="1.0" encoding="UTF-8"?>
<svg id="Layer_2" data-name="Layer 2" xmlns="http://www.w3.org/2000/svg" viewBox="0 0 76 105.5">
  <defs>
    <style>
      .cls-1 {
        opacity: .5;
      }

      .cls-1, .cls-2 {
        fill: #fff;
        stroke-width: 0px;
      }
    </style>
  </defs>
  <g id="Layer_1-2" data-name="Layer 1">
    <rect class="cls-2" x="26" y="37" width="24" height="20.5"/>
    <rect class="cls-2" y="37" width="24" height="20.5"/>
    <rect class="cls-1" x="52" y="37" width="24" height="20.5"/>
    <rect class="cls-2" x="26" y="85" width="24" height="20.5"/>
    <rect class="cls-1" y="85" width="24" height="20.5"/>
    <rect class="cls-2" x="52" y="85" width="24" height="20.5"/>
    <path class="cls-1" d="M20,37v-3c0-9.92,8.07-18,18-18s18,8.08,18,18v3h16v-3C72,15.25,56.75,0,38,0S4,15.25,4,34v3h16Z"/>
    <rect class="cls-2" y="61" width="24" height="20.5"/>
    <rect class="cls-2" x="52" y="61" width="24" height="20.5"/>
    <path class="cls-2" d="M26,61v20.5h24v-20.5h-24ZM38.57,79.54h-5.14l2.85-8.34c-1.63-.6-2.79-2.03-2.79-3.7,0-2.21,2.01-4,4.5-4s4.5,1.79,4.5,4c0,1.67-1.15,3.1-2.79,3.7l2.85,8.34h-4Z"/>
  </g>
</svg>